<svg
  id="Layer_1"
  data-name="Layer 1"
  xmlns="http://www.w3.org/2000/svg"
  viewBox="0 0 1070.84 233.27"
>
  <defs>
    <style>
      .cls-1 {
        font-size: 135.13px;
        fill: #231f20;
        font-family: Montserrat-ExtraBold, Montserrat;
        letter-spacing: -0.03em;
        font-weight: 500;
      }
    </style>
  </defs>
  <title>MOCHETINO</title>
  <text class="cls-1" transform="translate(230.33 165.09) scale(0.98 1)">
    MOCHETINO
  </text>
  <path
    d="M58.87,519.7A16.69,16.69,0,0,1,52.66,525c-1.63-1.16-3.26-2.4-4.88-3.64l-.16-.16a11.77,11.77,0,0,0,7.06-5.27,6.39,6.39,0,0,0-2.48-8.77,6.15,6.15,0,0,0-8.54,1.94c.86.54,1.71,1.09,2.64,1.63s1.71,1.08,2.56,1.7a6,6,0,0,1-8.3,1.4,22.27,22.27,0,0,1-2.56-4v-.08c-.39-2.56,1-4.35,2.87-6a12.05,12.05,0,0,1,15.91.23C61.51,508.29,62.44,514.73,58.87,519.7Z"
    transform="translate(-9.41 -375.54)"
  />
  <path
    d="M68,512.48a20,20,0,0,0-5.28-12c-8.07-8.69-21.72-8.15-28.32,0a34,34,0,0,1-.93-6.83c5.43-4.34,11.95-5.9,19.55-4.27,9.55,2,15.91,7.92,19.24,17,.7,1.94.86,3.42-1.39,4.27A14.85,14.85,0,0,0,68,512.48Z"
    transform="translate(-9.41 -375.54)"
  />
  <path
    d="M88.66,497.12a2.26,2.26,0,0,1-1.16,3.1c-2.79,1.56-5.43,3.34-8.38,5.2C74.62,492.62,65.77,485,52,482.15c1.17-.55,1.79-.93,2.41-1.17C67.87,474.93,84.55,482.85,88.66,497.12Z"
    transform="translate(-9.41 -375.54)"
  />
  <path
    d="M97.66,544.06a16.31,16.31,0,0,1-8.38,6.28c-2.17-1.39-4.34-2.79-6.59-4.26a12,12,0,0,0,10.55-5.51,6.47,6.47,0,0,0-2-8.77c-3-2-6.59-1.4-8.92,1.71,1.78,1.08,3.49,2.25,5.28,3.33a6.11,6.11,0,0,1-9.16.78,5.61,5.61,0,0,1-.7-7.45c3.65-5.27,11.1-6.44,16.68-2.48A11.82,11.82,0,0,1,97.66,544.06Z"
    transform="translate(-9.41 -375.54)"
  />
  <path
    d="M106.58,536.92c-.85-7.14-4.11-12.33-10.16-15.83-9.23-5.35-21.34-1.86-25.68,7.37a11.69,11.69,0,0,0,0,9.55c-2.17-1.48-4.27-3-6.36-4.42a16.1,16.1,0,0,1,4-11.8c6-7.06,14-9.93,23.35-7.91,9.54,2,15.9,7.91,19.24,17.07.7,1.94.62,3.33-1.55,4.19A22.31,22.31,0,0,0,106.58,536.92Z"
    transform="translate(-9.41 -375.54)"
  />
  <path
    d="M90.29,506.66a17.14,17.14,0,0,1,3-1.86C107,499.37,123.11,507.59,127,522c.31,1.32.31,2.17-1.09,2.95-2.71,1.47-5.27,3.18-8.07,5C113.64,517.6,104.18,509.15,90.29,506.66Z"
    transform="translate(-9.41 -375.54)"
  />
  <path
    d="M136.22,568.58A17.44,17.44,0,0,1,130,574c-2.25-1.09-4.5-2.33-6.75-3.5a11.51,11.51,0,0,0,8.77-5.74,6.43,6.43,0,0,0-2.25-8.53,6.33,6.33,0,0,0-8.84,1.78c1.78,1.17,3.49,2.25,5.12,3.26-2.41,3-5.82,3.34-8.54,1.24s-3-5.5-.77-8.38c3.88-5,11.17-5.74,16.52-1.78A11.66,11.66,0,0,1,136.22,568.58Z"
    transform="translate(-9.41 -375.54)"
  />
  <path
    d="M95.26,495.1c-4.66-12.8-13.81-20.32-27.78-22.88.93-.62,1.55-1,2.17-1.4,11-7,22.12-13.89,33.21-20.87,8.3-5.2,20.25-4.11,28,2.56a25.25,25.25,0,0,1,8.45,13.34,2.59,2.59,0,0,1-.69,2.26q-21.3,13.38-42.75,26.76A1.18,1.18,0,0,1,95.26,495.1Z"
    transform="translate(-9.41 -375.54)"
  />
  <path
    d="M109.38,553a11.89,11.89,0,0,0,.07,9.62c-2.17-1.24-4.26-2.48-6.44-3.8a17.11,17.11,0,0,1,3.81-12.41c6.28-7.45,14.5-10.17,24.2-7.84,9.86,2.33,16.22,8.69,18.93,18.39,1.24,4.42,1.17,4.5-2.71,6.75-.55.31-1.17.62-2,1.08,0-1.08,0-1.94-.08-2.71-.07-8.69-6.44-16.37-15.2-18.47C121.4,541.65,112.79,545.53,109.38,553Z"
    transform="translate(-9.41 -375.54)"
  />
  <path
    d="M118.76,440.1c7-3.88,13.89-4.35,21-1.63,8.85,3.41,14.12,9.85,16.22,18.93-3.34,2-6.6,4-10,6.13C141.5,450.57,132.57,442.89,118.76,440.1Z"
    transform="translate(-9.41 -375.54)"
  />
  <path
    d="M133.58,519.85c-4.5-12.8-13.42-20.48-27.07-23.27.85-.62,1.39-1.09,2-1.48,11.18-7,22.43-14,33.6-21,6.36-4,13.26-3.73,20.17-1.16A24.49,24.49,0,0,1,178,490.29a2.33,2.33,0,0,1-.7,2.25c-14.28,9-28.63,18-42.9,26.93C134.2,519.62,133.89,519.7,133.58,519.85Z"
    transform="translate(-9.41 -375.54)"
  />
  <path
    d="M184.71,488c-4.5-12.88-13.42-20.56-27.39-23.43,6.83-3.57,13.5-4.19,20.41-1.79,8.53,3,14,9,16.45,17.61a1.81,1.81,0,0,1-1,2.49C190.3,484.4,187.58,486.18,184.71,488Z"
    transform="translate(-9.41 -375.54)"
  />
  <path
    d="M153.68,578.43q30.6-19.09,61.21-38.25c-1.94,11.56-5,22.89-10.94,33.21-4.34,7.37-10,13.26-18.39,16.06-7.37,2.4-14.5,1.24-21.64-1a213.91,213.91,0,0,1-26.54-10.71c3.19-1.86,6.29-3.88,9.39-5.74.62-.39,1.24-.7,1.86-1.09a9,9,0,0,1-1.24,3.57c-1,1.63-1,3.18.39,4.5s3,1.24,4.58.31C152.82,579,153.21,578.74,153.68,578.43Z"
    transform="translate(-9.41 -375.54)"
  />
  <path
    d="M217.6,471.64a287.24,287.24,0,0,0-4.19-37.79c-.69-2.41-1.52-5.77-2.68-9a49.81,49.81,0,0,0-3.51-7.7,6.81,6.81,0,0,0,0,8.31,2,2,0,0,1-.21,2.82,1.78,1.78,0,0,1-2.81-.27,7.12,7.12,0,0,0-9.83-1.1,1.92,1.92,0,0,1-2.75-.41,1.88,1.88,0,0,1,.28-2.68,7.1,7.1,0,0,0,1.3-9.83,1.91,1.91,0,0,1,.28-2.82,2,2,0,0,1,2.81.34c2.55,2.75,5.57,3.37,8.66,1.86a36.55,36.55,0,0,0-11.13-10.86,39.14,39.14,0,0,0-31.68-4.6c-8.59,2.34-16.83,5.7-25.15,9.07a440,440,0,0,0-46.17,22.19c-12.37,6.94-24.67,14.16-35.6,23.44-7.83,6.66-14.63,14-18.83,23.64a37.61,37.61,0,0,0-2.61,8.86q39.9-25,79.85-50c18.28-11.4,41.78-2.47,48.24,18.28.2.55.41,1.1.69,1.79,8.58-1.51,16.62-.28,24.11,4.4a33,33,0,0,1,14.43,20.06c1-.14,1.93-.27,2.75-.41A32.24,32.24,0,0,1,218,480.64C217.94,477.62,217.73,474.73,217.6,471.64Zm-47.55-37.72a16.23,16.23,0,0,0-.28,3.71,3.1,3.1,0,0,1-2.75,3.16,3,3,0,0,1-3.23-2.82c-1.17-8.86-7-14.09-15.94-14.09a3,3,0,0,1-3.16-2.81,3,3,0,0,1,2.89-3.1c7.28-.89,12.43-5.49,13.74-12.36a31.87,31.87,0,0,0,.27-3.58,3,3,0,1,1,5.91-.34c1.1,8.66,7.15,14.09,15.88,14a3,3,0,0,1,3.23,2.88c.06,1.72-1.1,2.89-3.17,3.09A15,15,0,0,0,170.05,433.92ZM206.81,449c-4.74.35-7.9,3.44-8.18,8.11-.14,1.51-1,2.48-2.27,2.54a2.21,2.21,0,0,1-2.47-2.4,8.41,8.41,0,0,0-8.38-8.25,2.34,2.34,0,1,1,0-4.67,8.49,8.49,0,0,0,8.38-8.31c.07-1.58,1-2.41,2.34-2.34a2.37,2.37,0,0,1,2.4,2.34c.41,4.94,3.23,7.83,8.25,8.31a2.23,2.23,0,0,1,2.33,2.34A2.33,2.33,0,0,1,206.81,449Z"
    transform="translate(-9.41 -375.54)"
  />
  <path
    d="M216.21,531.26c-19,11.71-37.86,23.58-56.71,35.45-.63.39-1.25.7-2,1.17.93-19.79-8.61-31.89-28.32-36.93,8.3-5.28,16.53-10.4,24.67-15.52,13.89-8.69,27.62-17.46,41.59-26,7.52-4.58,15.28-5,22.81-1.47A280.2,280.2,0,0,1,216.21,531.26Z"
    transform="translate(-9.41 -375.54)"
  />
  <path
    d="M225.63,420.38c3,15.82,4.16,30.63,5,45.47,1.52,25.74,1.37,51.44-2.4,77-2.32,15.73-5.86,31.14-14,45.08-5.19,8.89-12,15.94-22,19.27-8.84,2.91-17.43,1.5-26-1.25-19.83-6.33-38.35-15.55-56.38-25.76a717.83,717.83,0,0,1-83-54.76C10.57,513,5,490.15,13.14,471.33c5-11.51,13.23-20.4,22.64-28.36,13.1-11.09,27.77-19.82,42.69-28.13a504.9,504.9,0,0,1,55.46-26.61c9.89-4,19.83-8.17,30.11-10.91,13.19-3.5,26.2-1.91,38.05,5.51,10.13,6.35,16.3,15.77,20.28,26.77C223.78,413.5,224.79,417.54,225.63,420.38Zm-6,.07c-1.12-3.16-2.63-8.66-5-13.77-8.42-18.43-24.84-27.16-44.88-24.48-9,1.2-17.17,4.8-25.44,8.14-27.67,11.21-54.63,23.87-80,39.63-11.74,7.29-23.11,15.11-32.79,25.1-6.68,6.88-12,14.61-14.73,23.94-4.54,15.66,1.69,33.12,15.73,43.33,11.3,8.22,22.64,16.41,34.22,24.22,23.93,16.14,48.54,31.17,74.8,43.28,11.25,5.18,22.65,10.07,34.91,12.42a27.16,27.16,0,0,0,23.11-5.83,44.85,44.85,0,0,0,11.75-15.21c5.86-11.67,8.91-24.19,10.92-37,3.85-24.47,4.2-49.1,3-73.78A365.94,365.94,0,0,0,219.63,420.45Z"
    transform="translate(-9.41 -375.54)"
  />
</svg>
