<svg xmlns="http://www.w3.org/2000/svg" viewBox="0 0 167.25 175.62"><defs><style>.cls-1{fill:#fff;}</style></defs><title>Asset 1</title><g id="Layer_2" data-name="Layer 2"><g id="Layer_1-2" data-name="Layer 1"><path class="cls-1" d="M37.24,108.53a12.74,12.74,0,0,1-4.68,4c-1.22-.88-2.45-1.81-3.68-2.75a.57.57,0,0,0-.11-.11,8.89,8.89,0,0,0,5.31-4,4.8,4.8,0,0,0-1.87-6.6,4.63,4.63,0,0,0-6.42,1.46c.64.41,1.28.82,2,1.23s1.29.82,1.93,1.29a4.52,4.52,0,0,1-6.25,1,17.12,17.12,0,0,1-1.93-3V101c-.29-1.93.76-3.27,2.17-4.5a9.08,9.08,0,0,1,12,.18C39.22,99.94,39.92,104.79,37.24,108.53Z"/><path class="cls-1" d="M44.07,103.09a15,15,0,0,0-4-9C34,87.5,23.74,87.91,18.78,94a25.34,25.34,0,0,1-.7-5.14A16.82,16.82,0,0,1,32.8,85.69c7.18,1.52,12,6,14.48,12.79.53,1.46.65,2.57-1.05,3.21A11.71,11.71,0,0,0,44.07,103.09Z"/><path class="cls-1" d="M59.67,91.53a1.72,1.72,0,0,1-.88,2.34c-2.1,1.16-4.09,2.51-6.31,3.91-3.39-9.64-10-15.36-20.38-17.52.87-.41,1.34-.7,1.81-.88C44,74.82,56.57,80.78,59.67,91.53Z"/><path class="cls-1" d="M66.44,126.87a12.33,12.33,0,0,1-6.31,4.73c-1.63-1-3.27-2.1-5-3.21a9,9,0,0,0,7.94-4.15,4.86,4.86,0,0,0-1.52-6.6,4.74,4.74,0,0,0-6.71,1.28c1.34.82,2.62,1.7,4,2.52A4.6,4.6,0,0,1,52,122a4.21,4.21,0,0,1-.53-5.61,9.16,9.16,0,0,1,15,10.46Z"/><path class="cls-1" d="M73.16,121.49a14.89,14.89,0,0,0-7.65-11.91c-7-4-16.07-1.4-19.34,5.55a8.81,8.81,0,0,0,0,7.18c-1.63-1.11-3.21-2.22-4.79-3.33a12.13,12.13,0,0,1,3-8.88,17.15,17.15,0,0,1,17.58-5.95c7.19,1.51,12,5.95,14.49,12.85.52,1.46.47,2.51-1.17,3.15A17,17,0,0,0,73.16,121.49Z"/><path class="cls-1" d="M60.89,98.71a12.91,12.91,0,0,1,2.28-1.4c10.28-4.09,22.43,2.1,25.35,12.91.23,1,.23,1.64-.82,2.22-2,1.11-4,2.39-6.07,3.74C78.47,107,71.35,100.58,60.89,98.71Z"/><path class="cls-1" d="M95.47,145.32a13,13,0,0,1-4.67,4.09c-1.7-.81-3.39-1.75-5.08-2.63a8.68,8.68,0,0,0,6.6-4.32,4.85,4.85,0,0,0-1.7-6.42A4.77,4.77,0,0,0,84,137.38c1.35.88,2.63,1.69,3.86,2.45-1.81,2.22-4.38,2.52-6.43.94a4.35,4.35,0,0,1-.58-6.31,9,9,0,0,1,12.44-1.34A8.77,8.77,0,0,1,95.47,145.32Z"/><path class="cls-1" d="M64.63,90c-3.5-9.64-10.4-15.3-20.91-17.23.7-.47,1.17-.76,1.64-1C53.65,66.47,62,61.27,70.35,56c6.25-3.92,15.25-3.1,21.09,1.92a19.1,19.1,0,0,1,6.37,10,2,2,0,0,1-.53,1.69q-16,10.08-32.18,20.16A1.09,1.09,0,0,1,64.63,90Z"/><path class="cls-1" d="M75.26,133.58a9,9,0,0,0,.06,7.25c-1.64-.94-3.21-1.87-4.85-2.87a12.86,12.86,0,0,1,2.86-9.34c4.73-5.61,10.93-7.65,18.23-5.9s12.2,6.54,14.25,13.84c.93,3.33.87,3.39-2,5.08-.4.24-.87.47-1.51.82,0-.82,0-1.46-.06-2a14.71,14.71,0,0,0-11.45-13.9C84.31,125.06,77.83,128,75.26,133.58Z"/><path class="cls-1" d="M82.33,48.6A17.77,17.77,0,0,1,98.1,47.37c6.66,2.57,10.63,7.42,12.21,14.25-2.52,1.52-5,3-7.54,4.62C99.44,56.48,92.73,50.7,82.33,48.6Z"/><path class="cls-1" d="M93.48,108.64C90.1,99,83.38,93.22,73.1,91.12c.64-.47,1.05-.82,1.52-1.11C83,84.75,91.5,79.5,99.91,74.18c4.79-3,10-2.8,15.19-.87A18.41,18.41,0,0,1,127,86.39a1.72,1.72,0,0,1-.52,1.69c-10.75,6.78-21.56,13.55-32.3,20.27A5,5,0,0,1,93.48,108.64Z"/><path class="cls-1" d="M132,84.64c-3.39-9.7-10.11-15.48-20.62-17.64a18.5,18.5,0,0,1,15.36-1.35A18.88,18.88,0,0,1,139.1,78.91a1.35,1.35,0,0,1-.76,1.87C136.18,82,134.14,83.29,132,84.64Z"/><path class="cls-1" d="M108.61,152.74q23-14.37,46.09-28.79c-1.46,8.7-3.74,17.23-8.24,25-3.27,5.54-7.53,10-13.84,12.09-5.55,1.81-10.92.93-16.3-.76a161.17,161.17,0,0,1-20-8.06c2.39-1.4,4.73-2.92,7.06-4.33.47-.29.94-.52,1.41-.81a7,7,0,0,1-.94,2.68,2.46,2.46,0,0,0,.29,3.39,2.61,2.61,0,0,0,3.45.24C108,153.15,108.26,153,108.61,152.74Z"/><path class="cls-1" d="M156.73,72.35a214.74,214.74,0,0,0-3.15-28.46c-.52-1.81-1.14-4.34-2-6.77a35.86,35.86,0,0,0-2.64-5.8,5.13,5.13,0,0,0,0,6.26,1.47,1.47,0,0,1-.15,2.12,1.35,1.35,0,0,1-2.12-.2,5.37,5.37,0,0,0-7.4-.83,1.44,1.44,0,0,1-2.07-.31,1.42,1.42,0,0,1,.21-2,5.34,5.34,0,0,0,1-7.4,1.43,1.43,0,0,1,.21-2.12,1.5,1.5,0,0,1,2.12.26,5.2,5.2,0,0,0,6.52,1.4,27.74,27.74,0,0,0-8.38-8.18A29.47,29.47,0,0,0,115,16.84a168,168,0,0,0-18.94,6.83A328.36,328.36,0,0,0,61.29,40.38C52,45.6,42.72,51,34.49,58c-5.9,5-11,10.55-14.17,17.79a27.76,27.76,0,0,0-2,6.68q30-18.85,60.11-37.61a24.33,24.33,0,0,1,36.32,13.76c.15.41.31.83.52,1.34a24.76,24.76,0,0,1,29,18.42l2.07-.31a24.3,24.3,0,0,1,10.66,1C157,76.85,156.84,74.67,156.73,72.35ZM120.94,44a12.24,12.24,0,0,0-.21,2.79,2.33,2.33,0,0,1-2.07,2.38A2.3,2.3,0,0,1,116.23,47c-.88-6.68-5.28-10.61-12-10.61a2.23,2.23,0,1,1-.21-4.45c5.48-.67,9.36-4.14,10.35-9.31a23.47,23.47,0,0,0,.2-2.69,2.23,2.23,0,1,1,4.45-.26c.83,6.52,5.38,10.61,12,10.56a2.22,2.22,0,0,1,2.43,2.17c.06,1.29-.82,2.17-2.38,2.33A11.31,11.31,0,0,0,120.94,44Zm27.67,11.38a6.21,6.21,0,0,0-6.15,6.1,1.86,1.86,0,0,1-1.71,1.92,1.67,1.67,0,0,1-1.86-1.82,6.33,6.33,0,0,0-6.31-6.2,1.76,1.76,0,0,1,0-3.52,6.41,6.41,0,0,0,6.31-6.26c.05-1.19.72-1.81,1.76-1.76a1.79,1.79,0,0,1,1.81,1.76c.31,3.72,2.43,5.9,6.2,6.26a1.67,1.67,0,0,1,1.76,1.76A1.76,1.76,0,0,1,148.61,55.33Z"/><path class="cls-1" d="M155.69,117.23c-14.31,8.82-28.5,17.76-42.7,26.69-.46.29-.93.53-1.52.88.71-14.9-6.48-24-21.32-27.8,6.25-4,12.45-7.83,18.58-11.69,10.45-6.54,20.79-13.14,31.31-19.56,5.66-3.45,11.5-3.8,17.17-1.11A210.49,210.49,0,0,1,155.69,117.23Z"/><path class="cls-1" d="M162.79,33.75A262.48,262.48,0,0,1,166.57,68c1.14,19.38,1,38.73-1.81,58-1.74,11.84-4.41,23.44-10.54,33.94-3.91,6.69-9,12-16.6,14.5-6.65,2.2-13.12,1.13-19.59-.94-14.93-4.76-28.87-11.71-42.45-19.39a538.68,538.68,0,0,1-62.49-41.23C.88,103.48-3.36,86.28,2.81,72.11c3.76-8.67,10-15.36,17-21.35C29.71,42.41,40.76,35.84,52,29.58a380.06,380.06,0,0,1,41.76-20c7.44-3,14.93-6.15,22.67-8.21a35.23,35.23,0,0,1,28.64,4.15c7.63,4.77,12.27,11.87,15.27,20.15C161.39,28.57,162.15,31.62,162.79,33.75Zm-4.52.06c-.85-2.38-2-6.52-3.74-10.37C148.19,9.56,135.82,3,120.74,5c-6.78.9-12.93,3.61-19.15,6.13C80.75,19.58,60.45,29.11,41.32,41c-8.85,5.48-17.4,11.37-24.69,18.89-5,5.18-9,11-11.09,18-3.42,11.79,1.27,24.94,11.84,32.63,8.51,6.19,17.05,12.35,25.77,18.23,18,12.15,36.54,23.47,56.31,32.58,8.47,3.91,17.05,7.58,26.28,9.35a20.4,20.4,0,0,0,17.4-4.39A33.67,33.67,0,0,0,152,154.84c4.41-8.78,6.7-18.21,8.22-27.85,2.9-18.42,3.16-37,2.26-55.55A275.41,275.41,0,0,0,158.27,33.81Z"/></g></g></svg>